<svg width="128" height="65" viewBox="0 0 128 65" fill="none" xmlns="http://www.w3.org/2000/svg">
<rect width="128" height="65" rx="32.5" fill="#15749D"/>
<path d="M63.808 42.808C64.512 42.744 65.1307 42.5947 65.664 42.36C66.1973 42.1147 66.6453 41.8053 67.008 41.432C67.3813 41.0587 67.6587 40.6267 67.84 40.136C68.032 39.6347 68.128 39.0853 68.128 38.488C68.128 37.9547 68.0267 37.496 67.824 37.112C67.632 36.728 67.3653 36.3973 67.024 36.12C66.6827 35.832 66.2827 35.592 65.824 35.4C65.3653 35.1973 64.8747 35.0107 64.352 34.84L63.808 42.808ZM63.28 24.312C62.5867 24.376 61.984 24.5147 61.472 24.728C60.9707 24.9413 60.5547 25.208 60.224 25.528C59.8933 25.848 59.648 26.2107 59.488 26.616C59.328 27.0107 59.248 27.4267 59.248 27.864C59.248 28.376 59.3387 28.824 59.52 29.208C59.7013 29.5813 59.952 29.912 60.272 30.2C60.592 30.488 60.9653 30.7387 61.392 30.952C61.8187 31.1653 62.2827 31.3573 62.784 31.528L63.28 24.312ZM64.544 32.088C65.312 32.3333 66.0693 32.5947 66.816 32.872C67.5627 33.1493 68.2347 33.5067 68.832 33.944C69.4293 34.3813 69.9093 34.9307 70.272 35.592C70.6453 36.2427 70.832 37.0587 70.832 38.04C70.832 39 70.672 39.9013 70.352 40.744C70.032 41.5867 69.5627 42.328 68.944 42.968C68.336 43.608 67.584 44.1307 66.688 44.536C65.8027 44.9307 64.7893 45.1653 63.648 45.24L63.456 48.04C63.4453 48.2427 63.3653 48.4187 63.216 48.568C63.0667 48.728 62.88 48.808 62.656 48.808H61.6L61.84 45.208C60.5493 45.08 59.3707 44.76 58.304 44.248C57.248 43.7253 56.336 43.064 55.568 42.264L56.432 40.952C56.5173 40.8347 56.624 40.7387 56.752 40.664C56.88 40.5893 57.0187 40.552 57.168 40.552C57.3707 40.552 57.6 40.6533 57.856 40.856C58.112 41.0587 58.4267 41.288 58.8 41.544C59.184 41.8 59.632 42.0507 60.144 42.296C60.6667 42.5413 61.2907 42.7067 62.016 42.792L62.592 34.296C61.8453 34.072 61.1093 33.8213 60.384 33.544C59.6693 33.2667 59.024 32.8987 58.448 32.44C57.8827 31.9813 57.424 31.4107 57.072 30.728C56.7307 30.0453 56.56 29.1867 56.56 28.152C56.56 27.3733 56.7093 26.616 57.008 25.88C57.3173 25.1333 57.7653 24.472 58.352 23.896C58.9387 23.32 59.6587 22.8507 60.512 22.488C61.3653 22.1147 62.3413 21.9067 63.44 21.864L63.6 19.56C63.6107 19.3573 63.6853 19.176 63.824 19.016C63.9733 18.856 64.1653 18.776 64.4 18.776H65.456L65.248 21.928C66.3573 22.0667 67.3173 22.3547 68.128 22.792C68.9493 23.2293 69.6747 23.7627 70.304 24.392L69.616 25.448C69.4027 25.768 69.1573 25.928 68.88 25.928C68.7307 25.928 68.544 25.864 68.32 25.736C68.1067 25.5973 67.8453 25.4373 67.536 25.256C67.2373 25.0747 66.88 24.8987 66.464 24.728C66.0587 24.5573 65.5947 24.4293 65.072 24.344L64.544 32.088ZM82.3705 42.808C83.0745 42.744 83.6932 42.5947 84.2265 42.36C84.7598 42.1147 85.2078 41.8053 85.5705 41.432C85.9438 41.0587 86.2212 40.6267 86.4025 40.136C86.5945 39.6347 86.6905 39.0853 86.6905 38.488C86.6905 37.9547 86.5892 37.496 86.3865 37.112C86.1945 36.728 85.9278 36.3973 85.5865 36.12C85.2452 35.832 84.8452 35.592 84.3865 35.4C83.9278 35.1973 83.4372 35.0107 82.9145 34.84L82.3705 42.808ZM81.8425 24.312C81.1492 24.376 80.5465 24.5147 80.0345 24.728C79.5332 24.9413 79.1172 25.208 78.7865 25.528C78.4558 25.848 78.2105 26.2107 78.0505 26.616C77.8905 27.0107 77.8105 27.4267 77.8105 27.864C77.8105 28.376 77.9012 28.824 78.0825 29.208C78.2638 29.5813 78.5145 29.912 78.8345 30.2C79.1545 30.488 79.5278 30.7387 79.9545 30.952C80.3812 31.1653 80.8452 31.3573 81.3465 31.528L81.8425 24.312ZM83.1065 32.088C83.8745 32.3333 84.6318 32.5947 85.3785 32.872C86.1252 33.1493 86.7972 33.5067 87.3945 33.944C87.9918 34.3813 88.4718 34.9307 88.8345 35.592C89.2078 36.2427 89.3945 37.0587 89.3945 38.04C89.3945 39 89.2345 39.9013 88.9145 40.744C88.5945 41.5867 88.1252 42.328 87.5065 42.968C86.8985 43.608 86.1465 44.1307 85.2505 44.536C84.3652 44.9307 83.3518 45.1653 82.2105 45.24L82.0185 48.04C82.0078 48.2427 81.9278 48.4187 81.7785 48.568C81.6292 48.728 81.4425 48.808 81.2185 48.808H80.1625L80.4025 45.208C79.1118 45.08 77.9332 44.76 76.8665 44.248C75.8105 43.7253 74.8985 43.064 74.1305 42.264L74.9945 40.952C75.0798 40.8347 75.1865 40.7387 75.3145 40.664C75.4425 40.5893 75.5812 40.552 75.7305 40.552C75.9332 40.552 76.1625 40.6533 76.4185 40.856C76.6745 41.0587 76.9892 41.288 77.3625 41.544C77.7465 41.8 78.1945 42.0507 78.7065 42.296C79.2292 42.5413 79.8532 42.7067 80.5785 42.792L81.1545 34.296C80.4078 34.072 79.6718 33.8213 78.9465 33.544C78.2318 33.2667 77.5865 32.8987 77.0105 32.44C76.4452 31.9813 75.9865 31.4107 75.6345 30.728C75.2932 30.0453 75.1225 29.1867 75.1225 28.152C75.1225 27.3733 75.2718 26.616 75.5705 25.88C75.8798 25.1333 76.3278 24.472 76.9145 23.896C77.5012 23.32 78.2212 22.8507 79.0745 22.488C79.9278 22.1147 80.9038 21.9067 82.0025 21.864L82.1625 19.56C82.1732 19.3573 82.2478 19.176 82.3865 19.016C82.5358 18.856 82.7278 18.776 82.9625 18.776H84.0185L83.8105 21.928C84.9198 22.0667 85.8798 22.3547 86.6905 22.792C87.5118 23.2293 88.2372 23.7627 88.8665 24.392L88.1785 25.448C87.9652 25.768 87.7198 25.928 87.4425 25.928C87.2932 25.928 87.1065 25.864 86.8825 25.736C86.6692 25.5973 86.4078 25.4373 86.0985 25.256C85.7998 25.0747 85.4425 24.8987 85.0265 24.728C84.6212 24.5573 84.1572 24.4293 83.6345 24.344L83.1065 32.088Z" fill="white"/>
<path d="M38 34.2H45.904V36.616H38V34.2Z" fill="white"/>
</svg>
