<svg width="141" height="65" viewBox="0 0 141 65" fill="none" xmlns="http://www.w3.org/2000/svg">
<rect width="141" height="65" rx="32.5" fill="#15749D"/>
<path d="M61.808 42.808C62.512 42.744 63.1307 42.5947 63.664 42.36C64.1973 42.1147 64.6453 41.8053 65.008 41.432C65.3813 41.0587 65.6587 40.6267 65.84 40.136C66.032 39.6347 66.128 39.0853 66.128 38.488C66.128 37.9547 66.0267 37.496 65.824 37.112C65.632 36.728 65.3653 36.3973 65.024 36.12C64.6827 35.832 64.2827 35.592 63.824 35.4C63.3653 35.1973 62.8747 35.0107 62.352 34.84L61.808 42.808ZM61.28 24.312C60.5867 24.376 59.984 24.5147 59.472 24.728C58.9707 24.9413 58.5547 25.208 58.224 25.528C57.8933 25.848 57.648 26.2107 57.488 26.616C57.328 27.0107 57.248 27.4267 57.248 27.864C57.248 28.376 57.3387 28.824 57.52 29.208C57.7013 29.5813 57.952 29.912 58.272 30.2C58.592 30.488 58.9653 30.7387 59.392 30.952C59.8187 31.1653 60.2827 31.3573 60.784 31.528L61.28 24.312ZM62.544 32.088C63.312 32.3333 64.0693 32.5947 64.816 32.872C65.5627 33.1493 66.2347 33.5067 66.832 33.944C67.4293 34.3813 67.9093 34.9307 68.272 35.592C68.6453 36.2427 68.832 37.0587 68.832 38.04C68.832 39 68.672 39.9013 68.352 40.744C68.032 41.5867 67.5627 42.328 66.944 42.968C66.336 43.608 65.584 44.1307 64.688 44.536C63.8027 44.9307 62.7893 45.1653 61.648 45.24L61.456 48.04C61.4453 48.2427 61.3653 48.4187 61.216 48.568C61.0667 48.728 60.88 48.808 60.656 48.808H59.6L59.84 45.208C58.5493 45.08 57.3707 44.76 56.304 44.248C55.248 43.7253 54.336 43.064 53.568 42.264L54.432 40.952C54.5173 40.8347 54.624 40.7387 54.752 40.664C54.88 40.5893 55.0187 40.552 55.168 40.552C55.3707 40.552 55.6 40.6533 55.856 40.856C56.112 41.0587 56.4267 41.288 56.8 41.544C57.184 41.8 57.632 42.0507 58.144 42.296C58.6667 42.5413 59.2907 42.7067 60.016 42.792L60.592 34.296C59.8453 34.072 59.1093 33.8213 58.384 33.544C57.6693 33.2667 57.024 32.8987 56.448 32.44C55.8827 31.9813 55.424 31.4107 55.072 30.728C54.7307 30.0453 54.56 29.1867 54.56 28.152C54.56 27.3733 54.7093 26.616 55.008 25.88C55.3173 25.1333 55.7653 24.472 56.352 23.896C56.9387 23.32 57.6587 22.8507 58.512 22.488C59.3653 22.1147 60.3413 21.9067 61.44 21.864L61.6 19.56C61.6107 19.3573 61.6853 19.176 61.824 19.016C61.9733 18.856 62.1653 18.776 62.4 18.776H63.456L63.248 21.928C64.3573 22.0667 65.3173 22.3547 66.128 22.792C66.9493 23.2293 67.6747 23.7627 68.304 24.392L67.616 25.448C67.4027 25.768 67.1573 25.928 66.88 25.928C66.7307 25.928 66.544 25.864 66.32 25.736C66.1067 25.5973 65.8453 25.4373 65.536 25.256C65.2373 25.0747 64.88 24.8987 64.464 24.728C64.0587 24.5573 63.5947 24.4293 63.072 24.344L62.544 32.088ZM80.3705 42.808C81.0745 42.744 81.6932 42.5947 82.2265 42.36C82.7598 42.1147 83.2078 41.8053 83.5705 41.432C83.9438 41.0587 84.2212 40.6267 84.4025 40.136C84.5945 39.6347 84.6905 39.0853 84.6905 38.488C84.6905 37.9547 84.5892 37.496 84.3865 37.112C84.1945 36.728 83.9278 36.3973 83.5865 36.12C83.2452 35.832 82.8452 35.592 82.3865 35.4C81.9278 35.1973 81.4372 35.0107 80.9145 34.84L80.3705 42.808ZM79.8425 24.312C79.1492 24.376 78.5465 24.5147 78.0345 24.728C77.5332 24.9413 77.1172 25.208 76.7865 25.528C76.4558 25.848 76.2105 26.2107 76.0505 26.616C75.8905 27.0107 75.8105 27.4267 75.8105 27.864C75.8105 28.376 75.9012 28.824 76.0825 29.208C76.2638 29.5813 76.5145 29.912 76.8345 30.2C77.1545 30.488 77.5278 30.7387 77.9545 30.952C78.3812 31.1653 78.8452 31.3573 79.3465 31.528L79.8425 24.312ZM81.1065 32.088C81.8745 32.3333 82.6318 32.5947 83.3785 32.872C84.1252 33.1493 84.7972 33.5067 85.3945 33.944C85.9918 34.3813 86.4718 34.9307 86.8345 35.592C87.2078 36.2427 87.3945 37.0587 87.3945 38.04C87.3945 39 87.2345 39.9013 86.9145 40.744C86.5945 41.5867 86.1252 42.328 85.5065 42.968C84.8985 43.608 84.1465 44.1307 83.2505 44.536C82.3652 44.9307 81.3518 45.1653 80.2105 45.24L80.0185 48.04C80.0078 48.2427 79.9278 48.4187 79.7785 48.568C79.6292 48.728 79.4425 48.808 79.2185 48.808H78.1625L78.4025 45.208C77.1118 45.08 75.9332 44.76 74.8665 44.248C73.8105 43.7253 72.8985 43.064 72.1305 42.264L72.9945 40.952C73.0798 40.8347 73.1865 40.7387 73.3145 40.664C73.4425 40.5893 73.5812 40.552 73.7305 40.552C73.9332 40.552 74.1625 40.6533 74.4185 40.856C74.6745 41.0587 74.9892 41.288 75.3625 41.544C75.7465 41.8 76.1945 42.0507 76.7065 42.296C77.2292 42.5413 77.8532 42.7067 78.5785 42.792L79.1545 34.296C78.4078 34.072 77.6718 33.8213 76.9465 33.544C76.2318 33.2667 75.5865 32.8987 75.0105 32.44C74.4452 31.9813 73.9865 31.4107 73.6345 30.728C73.2932 30.0453 73.1225 29.1867 73.1225 28.152C73.1225 27.3733 73.2718 26.616 73.5705 25.88C73.8798 25.1333 74.3278 24.472 74.9145 23.896C75.5012 23.32 76.2212 22.8507 77.0745 22.488C77.9278 22.1147 78.9038 21.9067 80.0025 21.864L80.1625 19.56C80.1732 19.3573 80.2478 19.176 80.3865 19.016C80.5358 18.856 80.7278 18.776 80.9625 18.776H82.0185L81.8105 21.928C82.9198 22.0667 83.8798 22.3547 84.6905 22.792C85.5118 23.2293 86.2372 23.7627 86.8665 24.392L86.1785 25.448C85.9652 25.768 85.7198 25.928 85.4425 25.928C85.2932 25.928 85.1065 25.864 84.8825 25.736C84.6692 25.5973 84.4078 25.4373 84.0985 25.256C83.7998 25.0747 83.4425 24.8987 83.0265 24.728C82.6212 24.5573 82.1572 24.4293 81.6345 24.344L81.1065 32.088ZM98.933 42.808C99.637 42.744 100.256 42.5947 100.789 42.36C101.322 42.1147 101.77 41.8053 102.133 41.432C102.506 41.0587 102.784 40.6267 102.965 40.136C103.157 39.6347 103.253 39.0853 103.253 38.488C103.253 37.9547 103.152 37.496 102.949 37.112C102.757 36.728 102.49 36.3973 102.149 36.12C101.808 35.832 101.408 35.592 100.949 35.4C100.49 35.1973 99.9997 35.0107 99.477 34.84L98.933 42.808ZM98.405 24.312C97.7117 24.376 97.109 24.5147 96.597 24.728C96.0957 24.9413 95.6797 25.208 95.349 25.528C95.0183 25.848 94.773 26.2107 94.613 26.616C94.453 27.0107 94.373 27.4267 94.373 27.864C94.373 28.376 94.4637 28.824 94.645 29.208C94.8263 29.5813 95.077 29.912 95.397 30.2C95.717 30.488 96.0903 30.7387 96.517 30.952C96.9437 31.1653 97.4077 31.3573 97.909 31.528L98.405 24.312ZM99.669 32.088C100.437 32.3333 101.194 32.5947 101.941 32.872C102.688 33.1493 103.36 33.5067 103.957 33.944C104.554 34.3813 105.034 34.9307 105.397 35.592C105.77 36.2427 105.957 37.0587 105.957 38.04C105.957 39 105.797 39.9013 105.477 40.744C105.157 41.5867 104.688 42.328 104.069 42.968C103.461 43.608 102.709 44.1307 101.813 44.536C100.928 44.9307 99.9143 45.1653 98.773 45.24L98.581 48.04C98.5703 48.2427 98.4903 48.4187 98.341 48.568C98.1917 48.728 98.005 48.808 97.781 48.808H96.725L96.965 45.208C95.6743 45.08 94.4957 44.76 93.429 44.248C92.373 43.7253 91.461 43.064 90.693 42.264L91.557 40.952C91.6423 40.8347 91.749 40.7387 91.877 40.664C92.005 40.5893 92.1437 40.552 92.293 40.552C92.4957 40.552 92.725 40.6533 92.981 40.856C93.237 41.0587 93.5517 41.288 93.925 41.544C94.309 41.8 94.757 42.0507 95.269 42.296C95.7917 42.5413 96.4157 42.7067 97.141 42.792L97.717 34.296C96.9703 34.072 96.2343 33.8213 95.509 33.544C94.7943 33.2667 94.149 32.8987 93.573 32.44C93.0077 31.9813 92.549 31.4107 92.197 30.728C91.8557 30.0453 91.685 29.1867 91.685 28.152C91.685 27.3733 91.8343 26.616 92.133 25.88C92.4423 25.1333 92.8903 24.472 93.477 23.896C94.0637 23.32 94.7837 22.8507 95.637 22.488C96.4903 22.1147 97.4663 21.9067 98.565 21.864L98.725 19.56C98.7357 19.3573 98.8103 19.176 98.949 19.016C99.0983 18.856 99.2903 18.776 99.525 18.776H100.581L100.373 21.928C101.482 22.0667 102.442 22.3547 103.253 22.792C104.074 23.2293 104.8 23.7627 105.429 24.392L104.741 25.448C104.528 25.768 104.282 25.928 104.005 25.928C103.856 25.928 103.669 25.864 103.445 25.736C103.232 25.5973 102.97 25.4373 102.661 25.256C102.362 25.0747 102.005 24.8987 101.589 24.728C101.184 24.5573 100.72 24.4293 100.197 24.344L99.669 32.088Z" fill="white"/>
<path d="M36 34.2H43.904V36.616H36V34.2Z" fill="white"/>
</svg>
