<svg width="1053" height="621" viewBox="0 0 1053 621" fill="none" xmlns="http://www.w3.org/2000/svg">
<g filter="url(#filter0_d_7142_24018)">
<rect x="142.502" y="36" width="710.69" height="451.724" rx="10" fill="#EDEDED"/>
</g>
<line x1="237.887" y1="85.3481" x2="237.887" y2="439.325" stroke="#C9C9C9"/>
<line x1="368.829" y1="85.3481" x2="368.829" y2="439.325" stroke="#C9C9C9"/>
<line x1="499.768" y1="85.3481" x2="499.768" y2="439.325" stroke="#C9C9C9"/>
<line x1="629.763" y1="85.3481" x2="629.763" y2="439.325" stroke="#C9C9C9"/>
<line x1="759.756" y1="85.3481" x2="759.756" y2="439.325" stroke="#C9C9C9"/>
<mask id="mask0_7142_24018" style="mask-type:alpha" maskUnits="userSpaceOnUse" x="50" y="137" width="910" height="359">
<path d="M840.092 354.288C886.592 367.317 920.215 398.607 959.064 410.354L959.69 495.856L53.5127 489.529L50.9372 137.592C95.1529 144.141 104.287 142.38 126.181 138.126C148.074 133.872 172.175 163.642 196.055 169.906C219.935 176.169 248.803 135.48 298.967 149.725C349.132 163.97 378.126 245.437 423.712 218.794C469.299 192.152 475.407 210.677 519.743 210.428C564.079 210.18 571.24 292.883 612.677 296.412C654.113 299.94 655.234 368.011 698.048 368.054C749.928 368.106 746.128 363.268 770.139 356.924C794.15 350.581 815.308 347.343 840.092 354.288Z" fill="url(#paint0_linear_7142_24018)"/>
</mask>
<g mask="url(#mask0_7142_24018)">
<rect width="709.379" height="315.729" transform="matrix(0.999978 -0.00554885 0.0055472 0.999991 142.985 143.66)" fill="url(#paint1_linear_7142_24018)"/>
</g>
<path d="M1053.4 429.875C969.917 421.802 883.238 369.616 836.926 356.484C812.242 349.485 791.136 352.866 767.175 359.426C743.215 365.987 746.986 370.912 695.263 371.045C652.58 371.155 651.706 301.681 610.408 298.228C569.11 294.776 562.268 210.389 518.065 210.801C473.863 211.214 467.839 192.328 422.296 219.685C376.752 247.042 350.757 163.701 300.796 149.341C250.835 134.982 220.915 177.386 197.129 171.079C173.344 164.772 143.831 134.431 121.989 138.851C100.146 143.272 93.0243 145.086 48.9662 138.561" stroke="#E7B65F" stroke-width="5" stroke-linecap="round" stroke-linejoin="round"/>
<defs>
<filter id="filter0_d_7142_24018" x="102.502" y="0" width="790.689" height="531.724" filterUnits="userSpaceOnUse" color-interpolation-filters="sRGB">
<feFlood flood-opacity="0" result="BackgroundImageFix"/>
<feColorMatrix in="SourceAlpha" type="matrix" values="0 0 0 0 0 0 0 0 0 0 0 0 0 0 0 0 0 0 127 0" result="hardAlpha"/>
<feMorphology radius="10" operator="dilate" in="SourceAlpha" result="effect1_dropShadow_7142_24018"/>
<feOffset dy="4"/>
<feGaussianBlur stdDeviation="15"/>
<feComposite in2="hardAlpha" operator="out"/>
<feColorMatrix type="matrix" values="0 0 0 0 0 0 0 0 0 0 0 0 0 0 0 0 0 0 0.15 0"/>
<feBlend mode="normal" in2="BackgroundImageFix" result="effect1_dropShadow_7142_24018"/>
<feBlend mode="normal" in="SourceGraphic" in2="effect1_dropShadow_7142_24018" result="shape"/>
</filter>
<linearGradient id="paint0_linear_7142_24018" x1="526.547" y1="182.32" x2="502.853" y2="356.322" gradientUnits="userSpaceOnUse">
<stop offset="0.435417" stop-color="#FFA300"/>
<stop offset="1" stop-color="white" stop-opacity="0"/>
</linearGradient>
<linearGradient id="paint1_linear_7142_24018" x1="399.524" y1="74.867" x2="335.61" y2="304.168" gradientUnits="userSpaceOnUse">
<stop stop-color="#FAE7C5"/>
<stop offset="1" stop-color="#C4C4C4" stop-opacity="0"/>
</linearGradient>
</defs>
</svg>
