<svg width="500" height="373" viewBox="0 0 500 373" fill="none" xmlns="http://www.w3.org/2000/svg">
<path d="M73.2226 332.558C170.842 383.561 329.132 383.561 426.773 332.558C524.414 281.555 524.403 198.863 426.773 147.86C329.143 96.8572 170.864 96.8572 73.2226 147.86C-24.4185 198.863 -24.3966 281.598 73.2226 332.558Z" fill="#F5F5F5"/>
<path d="M67.6794 247.237C81.5285 247.237 92.7553 241.887 92.7553 235.288C92.7553 228.689 81.5285 223.339 67.6794 223.339C53.8304 223.339 42.6035 228.689 42.6035 235.288C42.6035 241.887 53.8304 247.237 67.6794 247.237Z" fill="#EBEBEB"/>
<path d="M353.834 263.185C372.318 263.185 387.302 256.043 387.302 247.232C387.302 238.421 372.318 231.278 353.834 231.278C335.351 231.278 320.367 238.421 320.367 247.232C320.367 256.043 335.351 263.185 353.834 263.185Z" fill="#EBEBEB"/>
<path d="M453.892 181.597C453.892 181.597 456.478 173.609 464.891 165.098C468.601 161.344 471.024 158.725 470.249 156.488C469.55 154.513 467.193 153.487 463.822 155.08C459.031 157.35 455.801 161.562 453.892 170.019V181.597Z" fill="#E1A945"/>
<path opacity="0.1" d="M453.892 181.597C453.892 181.597 456.478 173.609 464.891 165.098C468.601 161.344 471.024 158.725 470.249 156.488C469.55 154.513 467.193 153.487 463.822 155.08C459.031 157.35 455.801 161.562 453.892 170.019V181.597Z" fill="black"/>
<path d="M453.354 176.576H453.255C453.15 176.548 453.06 176.479 453.005 176.385C452.95 176.292 452.934 176.18 452.961 176.074C455.962 164.486 463.72 157.305 467.005 155.647C467.104 155.6 467.216 155.594 467.32 155.628C467.424 155.663 467.51 155.736 467.561 155.832C467.607 155.929 467.613 156.041 467.579 156.143C467.544 156.244 467.471 156.329 467.376 156.378C464.2 157.982 456.682 164.966 453.757 176.281C453.731 176.368 453.678 176.443 453.605 176.496C453.532 176.55 453.444 176.578 453.354 176.576Z" fill="white"/>
<path d="M453.892 191.513C453.892 191.513 457.482 184.475 461.814 180.732C466.146 176.99 471.711 173.17 466.997 170.246C462.283 167.321 454.524 173.061 453.902 178.725L453.892 191.513Z" fill="#E1A945"/>
<path d="M453.355 186.506H453.268C453.163 186.48 453.073 186.414 453.016 186.322C452.959 186.231 452.94 186.12 452.963 186.015C455.003 177.285 462.325 172.353 464.759 171.535C464.859 171.514 464.963 171.531 465.052 171.582C465.14 171.634 465.207 171.717 465.238 171.814C465.269 171.912 465.263 172.018 465.221 172.111C465.179 172.204 465.103 172.279 465.01 172.32C462.827 173.062 455.691 177.918 453.759 186.2C453.735 186.289 453.682 186.367 453.609 186.422C453.536 186.477 453.447 186.507 453.355 186.506Z" fill="white"/>
<path d="M134.756 262.26C134.756 262.26 133.097 258.572 126.168 257.012C119.424 255.495 116.074 257.012 111.524 256.226C106.974 255.44 108.163 246.94 120.406 247.824C131.613 248.631 134.756 257.448 134.756 257.448V262.26Z" fill="#E1A945"/>
<path d="M135.421 260.226C135.342 260.224 135.265 260.199 135.199 260.155C135.133 260.11 135.082 260.048 135.05 259.975C133.959 257.367 129.922 253.111 124.237 251.813C117.176 250.209 113.423 251.813 113.39 251.813C113.292 251.846 113.186 251.841 113.092 251.8C112.997 251.758 112.921 251.684 112.879 251.59C112.837 251.496 112.831 251.389 112.863 251.291C112.895 251.193 112.962 251.111 113.052 251.06C113.215 250.994 117.1 249.303 124.411 250.972C130.729 252.413 134.756 257.039 135.803 259.626C135.825 259.675 135.836 259.728 135.837 259.782C135.837 259.836 135.827 259.889 135.807 259.939C135.786 259.989 135.756 260.034 135.718 260.072C135.68 260.11 135.635 260.14 135.585 260.16L135.421 260.226Z" fill="white"/>
<path d="M134.756 258.058C133.375 255.585 131.607 253.349 129.518 251.435C122.971 245.084 114.241 243.087 109.877 239.617C105.075 235.874 110.891 231.553 117.068 231.826C120.603 231.989 124.335 234.325 126.387 236.005C133.61 241.908 134.8 251.435 134.8 251.435L134.756 258.058Z" fill="#E1A945"/>
<path opacity="0.5" d="M134.756 258.058C133.375 255.585 131.607 253.349 129.518 251.435C122.971 245.084 114.241 243.087 109.877 239.617C105.075 235.874 110.891 231.553 117.068 231.826C120.603 231.989 124.335 234.325 126.387 236.005C133.61 241.908 134.8 251.435 134.8 251.435L134.756 258.058Z" fill="white"/>
<path d="M135.421 257.413C135.323 257.412 135.229 257.376 135.155 257.312C135.082 257.248 135.033 257.16 135.017 257.064C134.157 252.476 132.076 248.205 128.994 244.7C123.843 238.841 115.037 235.698 114.939 235.665C114.839 235.628 114.758 235.554 114.711 235.459C114.664 235.363 114.656 235.254 114.688 235.152C114.705 235.101 114.732 235.053 114.768 235.013C114.804 234.972 114.848 234.939 114.897 234.916C114.946 234.892 114.999 234.879 115.053 234.876C115.107 234.874 115.161 234.882 115.212 234.901C115.583 235.021 124.312 238.175 129.605 244.155C132.814 247.77 134.97 252.198 135.836 256.955C135.843 257.008 135.84 257.063 135.826 257.116C135.812 257.169 135.787 257.218 135.753 257.261C135.72 257.303 135.678 257.339 135.63 257.365C135.582 257.391 135.53 257.408 135.475 257.413H135.421Z" fill="white"/>
<path d="M284.512 325.879C284.512 325.879 286.367 322.278 293.372 321.089C300.181 319.932 303.444 321.58 308.038 321.089C312.632 320.598 311.89 311.988 299.614 312.217C288.385 312.425 284.774 321.056 284.774 321.056L284.512 325.879Z" fill="#E1A945"/>
<path opacity="0.1" d="M284.512 325.879C284.512 325.879 286.367 322.278 293.372 321.089C300.181 319.932 303.444 321.58 308.038 321.089C312.632 320.598 311.89 311.988 299.614 312.217C288.385 312.425 284.774 321.056 284.774 321.056L284.512 325.879Z" fill="black"/>
<path d="M283.977 324.153C283.891 324.149 283.808 324.123 283.736 324.077C283.692 324.046 283.655 324.007 283.626 323.962C283.597 323.917 283.578 323.866 283.568 323.813C283.559 323.761 283.561 323.706 283.573 323.654C283.585 323.602 283.607 323.553 283.638 323.509C286.246 319.777 290.993 316.962 296.351 316.023C303.236 314.79 307.263 316.973 307.437 317.115C307.484 317.14 307.525 317.175 307.558 317.217C307.591 317.258 307.616 317.306 307.631 317.357C307.645 317.409 307.65 317.462 307.644 317.515C307.638 317.568 307.621 317.619 307.596 317.666C307.57 317.712 307.535 317.753 307.494 317.786C307.452 317.82 307.404 317.844 307.353 317.859C307.302 317.874 307.248 317.878 307.195 317.872C307.142 317.866 307.091 317.85 307.045 317.824C307.045 317.824 303.084 315.696 296.493 316.875C291.353 317.791 286.792 320.465 284.315 324.022C284.271 324.067 284.218 324.102 284.16 324.124C284.102 324.147 284.039 324.157 283.977 324.153Z" fill="white"/>
<path d="M285.004 320.825C286.588 318.831 288.389 317.02 290.372 315.423C297.28 309.443 306.02 308.472 310.647 305.242C315.645 301.761 310.069 297.135 303.881 297.08C300.346 297.08 296.494 299.186 294.344 300.757C289.764 304.189 286.338 308.936 284.523 314.365L285.004 320.825Z" fill="#E1A945"/>
<path opacity="0.5" d="M285.004 320.825C286.588 318.831 288.389 317.02 290.372 315.423C297.28 309.443 306.02 308.472 310.647 305.242C315.645 301.761 310.069 297.135 303.881 297.08C300.346 297.08 296.494 299.186 294.344 300.757C289.764 304.189 286.338 308.936 284.523 314.365L285.004 320.825Z" fill="white"/>
<path d="M283.976 320.734H283.823C283.723 320.697 283.641 320.623 283.592 320.528C283.544 320.434 283.533 320.324 283.561 320.221C285.267 315.537 287.961 311.276 291.462 307.727C295.259 303.811 300.191 301.189 305.56 300.23C305.613 300.223 305.666 300.226 305.717 300.239C305.769 300.253 305.817 300.277 305.858 300.309C305.9 300.342 305.935 300.383 305.961 300.429C305.986 300.475 306.002 300.527 306.008 300.579C306.015 300.633 306.012 300.688 305.998 300.741C305.984 300.793 305.959 300.842 305.925 300.885C305.892 300.928 305.85 300.964 305.802 300.99C305.754 301.016 305.702 301.032 305.647 301.038C300.478 302.019 295.73 304.554 292.04 308.305C288.65 311.757 286.045 315.9 284.402 320.45C284.373 320.538 284.315 320.614 284.238 320.665C284.161 320.717 284.069 320.741 283.976 320.734Z" fill="white"/>
<path d="M179.074 263.175V180.734H134.76V263.186C134.76 266.46 136.942 269.733 141.307 272.221C149.96 277.219 163.993 277.219 172.646 272.221C177.011 269.722 179.128 266.46 179.139 263.186L179.074 263.175Z" fill="#37474F"/>
<path d="M141.253 190.334C132.589 185.336 132.589 177.24 141.253 172.231C149.917 167.222 163.939 167.233 172.592 172.231C181.246 177.229 181.246 185.325 172.592 190.334C163.939 195.343 149.906 195.321 141.253 190.334Z" fill="#455A64"/>
<path d="M232.268 293.89V233.874H187.943V293.89C187.943 297.164 190.126 300.438 194.491 302.926C203.144 307.923 217.177 307.923 225.83 302.926C230.195 300.438 232.323 297.164 232.323 293.89H232.268Z" fill="#37474F"/>
<path d="M194.433 243.49C185.78 238.492 185.78 230.395 194.433 225.387C203.087 220.378 217.119 220.389 225.773 225.387C234.426 230.384 234.437 238.481 225.773 243.49C217.109 248.498 203.076 248.531 194.433 243.49Z" fill="#455A64"/>
<path d="M285.464 324.597V277.991H241.14V324.608C241.14 327.881 243.322 331.155 247.687 333.654C256.34 338.651 270.373 338.651 279.026 333.654C283.391 331.155 285.508 327.881 285.519 324.608L285.464 324.597Z" fill="#37474F"/>
<path d="M263.302 291.327C275.542 291.327 285.464 285.597 285.464 278.527C285.464 271.458 275.542 265.728 263.302 265.728C251.062 265.728 241.14 271.458 241.14 278.527C241.14 285.597 251.062 291.327 263.302 291.327Z" fill="#455A64"/>
<path d="M131.922 292.245L121.457 286.211L127.251 278.703C127.993 277.743 127.644 277.219 126.477 277.514L112.597 281.093L102.132 275.048C101.253 274.601 100.281 274.368 99.2948 274.368C98.3088 274.368 97.3367 274.601 96.4576 275.048L79.9695 284.541C78.3982 285.447 78.3982 286.909 79.9695 287.815L109.759 305.012C110.638 305.459 111.611 305.692 112.597 305.692C113.583 305.692 114.555 305.459 115.434 305.012L131.922 295.486C133.482 294.613 133.482 293.151 131.922 292.245Z" fill="#E1A945"/>
<path d="M115.185 288.545C115.356 288.528 115.527 288.528 115.698 288.545C115.867 288.566 116.031 288.622 116.178 288.709L117.673 289.571C117.774 289.62 117.852 289.706 117.891 289.811C117.891 289.898 117.891 289.974 117.738 290.029C117.703 290.039 117.665 290.039 117.629 290.029C117.576 290.041 117.52 290.041 117.466 290.029L96.7328 291.666H96.1435C95.9734 291.64 95.8102 291.581 95.6634 291.491L94.1684 290.629C94.0676 290.58 93.9894 290.494 93.9502 290.389C93.9502 290.302 93.9502 290.225 94.103 290.171C94.1387 290.161 94.1764 290.161 94.2121 290.171H94.3758L115.185 288.545ZM108.507 287.159C108.063 287.455 107.6 287.721 107.121 287.956C106.734 288.152 106.328 288.309 105.91 288.425C105.471 288.536 105.02 288.591 104.568 288.588C103.558 288.591 102.566 288.319 101.698 287.803C101.284 287.6 100.913 287.318 100.607 286.974C100.408 286.747 100.296 286.457 100.29 286.155C100.294 285.87 100.398 285.596 100.585 285.38C100.802 285.099 101.068 284.858 101.37 284.671C101.577 284.521 101.792 284.383 102.014 284.256C102.222 284.136 102.473 284.005 102.745 283.875C103.138 283.677 103.552 283.523 103.978 283.416C104.885 283.191 105.833 283.191 106.739 283.416C107.243 283.553 107.727 283.755 108.18 284.016C108.573 284.222 108.922 284.504 109.205 284.846C109.406 285.072 109.522 285.361 109.533 285.664C109.519 285.947 109.415 286.218 109.238 286.439C109.038 286.72 108.791 286.963 108.507 287.159ZM110.569 295.692C110.147 296.008 109.702 296.292 109.238 296.543C108.848 296.739 108.438 296.893 108.016 297.002C107.579 297.122 107.127 297.181 106.674 297.176C106.191 297.174 105.71 297.108 105.244 296.98C104.739 296.852 104.254 296.653 103.804 296.391C103.414 296.179 103.067 295.898 102.778 295.561C102.577 295.332 102.465 295.037 102.462 294.732C102.47 294.45 102.57 294.178 102.745 293.957C102.967 293.679 103.237 293.443 103.542 293.259C103.745 293.103 103.96 292.964 104.186 292.844C104.421 292.701 104.665 292.574 104.917 292.462C105.306 292.265 105.716 292.111 106.139 292.004C106.579 291.896 107.029 291.838 107.481 291.829C108.488 291.829 109.475 292.1 110.34 292.615C110.756 292.815 111.128 293.097 111.431 293.444C111.624 293.665 111.73 293.948 111.73 294.241C111.73 294.534 111.624 294.817 111.431 295.038C111.183 295.303 110.892 295.524 110.569 295.692ZM103.618 285.871C103.401 285.994 103.224 286.176 103.105 286.395C103.105 286.548 103.105 286.701 103.422 286.853C103.658 286.997 103.933 287.061 104.208 287.039C104.524 286.989 104.831 286.886 105.113 286.733C105.527 286.535 105.924 286.305 106.303 286.046C106.525 285.926 106.707 285.744 106.826 285.522C106.826 285.369 106.772 285.217 106.51 285.064C106.271 284.919 105.991 284.858 105.713 284.889C105.4 284.934 105.097 285.033 104.819 285.184C104.402 285.366 104 285.581 103.618 285.828V285.871ZM105.692 294.405C105.469 294.524 105.287 294.706 105.168 294.928C105.168 295.07 105.168 295.223 105.484 295.376C105.72 295.528 106.002 295.594 106.281 295.561C106.593 295.512 106.895 295.412 107.176 295.267C107.594 295.071 107.995 294.841 108.376 294.579C108.596 294.46 108.774 294.278 108.889 294.055C108.889 293.903 108.889 293.75 108.572 293.597C108.337 293.454 108.062 293.389 107.787 293.412C107.473 293.46 107.17 293.564 106.892 293.717C106.475 293.899 106.074 294.114 105.692 294.361V294.405Z" fill="white"/>
<path d="M189.557 325.503L179.071 319.457L184.865 311.961C185.596 311.001 185.247 310.466 184.079 310.771L170.199 314.34L159.735 308.305C158.857 307.859 157.887 307.626 156.903 307.626C155.919 307.626 154.948 307.859 154.071 308.305L137.605 317.821C136.044 318.726 136.044 320.199 137.605 321.094L167.395 338.302C168.275 338.744 169.247 338.974 170.232 338.974C171.217 338.974 172.189 338.744 173.069 338.302L189.557 328.776C191.129 327.871 191.129 326.408 189.557 325.503Z" fill="#E1A945"/>
<path d="M172.821 321.805H173.345C173.515 321.832 173.677 321.891 173.825 321.979L175.309 322.841C175.44 322.918 175.516 322.994 175.527 323.081C175.538 323.169 175.527 323.234 175.385 323.3C175.349 323.308 175.312 323.308 175.276 323.3H175.113L154.38 324.936C154.205 324.953 154.03 324.953 153.856 324.936C153.685 324.912 153.522 324.853 153.376 324.762L151.892 323.911C151.761 323.834 151.684 323.747 151.673 323.671C151.67 323.622 151.682 323.574 151.707 323.533C151.733 323.492 151.771 323.46 151.815 323.441H151.924H152.088L172.821 321.805ZM166.143 320.419C165.705 320.717 165.245 320.984 164.768 321.215C164.378 321.411 163.968 321.565 163.546 321.674C163.109 321.793 162.657 321.852 162.204 321.848C161.721 321.846 161.24 321.78 160.774 321.652C160.269 321.524 159.784 321.325 159.334 321.063C158.941 320.85 158.59 320.569 158.297 320.233C158.099 320.013 157.99 319.727 157.99 319.431C157.99 319.135 158.099 318.85 158.297 318.629C158.518 318.354 158.783 318.118 159.083 317.931C159.289 317.78 159.504 317.641 159.727 317.516C159.967 317.376 160.215 317.248 160.469 317.134C160.858 316.937 161.268 316.783 161.691 316.676C162.397 316.496 163.131 316.458 163.852 316.562C164.573 316.667 165.266 316.914 165.892 317.287C166.287 317.496 166.638 317.777 166.929 318.116C167.129 318.342 167.241 318.633 167.245 318.935C167.237 319.219 167.133 319.492 166.95 319.71C166.727 319.993 166.453 320.234 166.143 320.419ZM168.216 328.952C167.773 329.249 167.31 329.515 166.83 329.749C166.445 329.946 166.039 330.1 165.619 330.207C165.18 330.318 164.729 330.373 164.277 330.371C163.267 330.373 162.275 330.101 161.407 329.585C161.013 329.38 160.661 329.102 160.37 328.767C160.169 328.537 160.057 328.243 160.054 327.937C160.066 327.654 160.17 327.382 160.349 327.162C160.569 326.883 160.834 326.644 161.134 326.453C161.352 326.3 161.571 326.169 161.778 326.039C161.985 325.908 162.236 325.788 162.509 325.657C162.902 325.459 163.316 325.305 163.742 325.198C164.183 325.098 164.633 325.043 165.084 325.035C165.563 325.033 166.04 325.096 166.503 325.22C167.009 325.35 167.494 325.552 167.943 325.82C168.338 326.029 168.69 326.31 168.98 326.65C169.177 326.868 169.286 327.152 169.286 327.446C169.286 327.74 169.177 328.024 168.98 328.243C168.767 328.52 168.508 328.76 168.216 328.952ZM161.265 319.131C161.043 319.251 160.861 319.433 160.741 319.655C160.741 319.797 160.796 319.95 161.058 320.102C161.294 320.255 161.575 320.32 161.854 320.288C162.166 320.237 162.468 320.137 162.749 319.993C163.17 319.798 163.572 319.564 163.95 319.295C164.168 319.179 164.346 319 164.462 318.782C164.462 318.629 164.408 318.476 164.146 318.324C163.912 318.175 163.636 318.11 163.36 318.138C163.043 318.187 162.736 318.29 162.455 318.444C162.041 318.626 161.643 318.841 161.265 319.088V319.131ZM163.328 327.664C163.114 327.787 162.937 327.964 162.815 328.177C162.815 328.33 162.869 328.483 163.131 328.636C163.365 328.784 163.642 328.849 163.917 328.821C164.233 328.772 164.538 328.672 164.823 328.526C165.235 328.323 165.633 328.089 166.012 327.828C166.23 327.709 166.412 327.531 166.536 327.315C166.59 327.162 166.536 327.01 166.219 326.857C165.981 326.709 165.701 326.644 165.423 326.671C165.111 326.722 164.809 326.822 164.528 326.966C164.114 327.158 163.713 327.377 163.328 327.621V327.664Z" fill="white"/>
<path d="M247.154 358.739L236.689 352.705L242.494 345.186C243.226 344.237 242.876 343.702 241.709 344.008L227.829 347.576L217.364 341.542C216.485 341.095 215.513 340.862 214.527 340.862C213.541 340.862 212.569 341.095 211.69 341.542L195.202 351.101C193.641 352.006 193.641 353.48 195.202 354.374L224.991 371.583C225.872 372.024 226.844 372.254 227.829 372.254C228.814 372.254 229.785 372.024 230.666 371.583L247.154 362.013C248.725 361.14 248.725 359.678 247.154 358.739Z" fill="#E1A945"/>
<path d="M230.417 355.073H230.929C231.1 355.098 231.263 355.158 231.41 355.247L232.905 356.109C233.035 356.186 233.112 356.262 233.123 356.35C233.134 356.437 233.123 356.502 232.981 356.568H232.872H232.708L211.975 358.205C211.805 358.221 211.633 358.221 211.462 358.205C211.291 358.182 211.128 358.123 210.982 358.03L209.498 357.179C209.367 357.102 209.291 357.015 209.28 356.939C209.276 356.89 209.288 356.842 209.314 356.801C209.339 356.76 209.377 356.728 209.422 356.71H209.531C209.585 356.697 209.641 356.697 209.695 356.71L230.417 355.073ZM223.738 353.687C223.298 353.988 222.834 354.254 222.353 354.484C221.967 354.681 221.561 354.835 221.141 354.942C220.704 355.062 220.252 355.12 219.799 355.116C219.313 355.114 218.828 355.048 218.359 354.92C217.857 354.792 217.375 354.594 216.929 354.331C216.537 354.119 216.186 353.838 215.893 353.501C215.691 353.272 215.579 352.978 215.576 352.672C215.589 352.389 215.692 352.117 215.871 351.897C216.094 351.621 216.359 351.382 216.656 351.188C216.875 351.035 217.093 350.904 217.3 350.784C217.508 350.664 217.759 350.533 218.031 350.392C218.834 349.998 219.713 349.786 220.607 349.77C221.612 349.773 222.599 350.044 223.466 350.555C223.86 350.764 224.212 351.045 224.502 351.385C224.7 351.612 224.811 351.902 224.819 352.203C224.805 352.486 224.702 352.757 224.524 352.978C224.307 353.259 224.041 353.5 223.738 353.687ZM225.801 362.22C225.36 362.515 224.901 362.781 224.426 363.017C224.04 363.213 223.634 363.366 223.215 363.475C222.302 363.707 221.345 363.707 220.432 363.475C219.93 363.343 219.449 363.141 219.003 362.875C218.586 362.675 218.215 362.393 217.911 362.046C217.709 361.821 217.596 361.53 217.595 361.227C217.601 360.945 217.701 360.672 217.879 360.452C218.106 360.176 218.374 359.937 218.675 359.743C218.882 359.593 219.097 359.455 219.319 359.329C219.526 359.208 219.777 359.078 220.05 358.947C220.847 358.537 221.73 358.323 222.625 358.325C223.104 358.323 223.581 358.386 224.044 358.51C224.546 358.642 225.027 358.844 225.473 359.11C225.89 359.31 226.261 359.592 226.565 359.94C226.767 360.164 226.88 360.456 226.881 360.758C226.875 361.041 226.775 361.313 226.597 361.533C226.374 361.807 226.104 362.039 225.801 362.22ZM218.85 352.399C218.633 352.522 218.455 352.704 218.337 352.923C218.337 353.065 218.392 353.218 218.653 353.37C218.888 353.517 219.164 353.582 219.439 353.556C219.755 353.507 220.061 353.407 220.345 353.261C220.764 353.064 221.166 352.83 221.545 352.563C221.763 352.447 221.942 352.268 222.058 352.05C222.113 351.897 222.058 351.745 221.742 351.592C221.504 351.444 221.224 351.379 220.945 351.406C220.632 351.457 220.329 351.56 220.05 351.712C219.634 351.896 219.233 352.111 218.85 352.356V352.399ZM220.923 360.933C220.707 361.056 220.527 361.232 220.399 361.445C220.399 361.598 220.399 361.751 220.727 361.904C220.96 362.052 221.237 362.117 221.512 362.089C221.825 362.04 222.127 361.94 222.407 361.795C222.824 361.591 223.225 361.358 223.607 361.096C223.826 360.977 224.007 360.799 224.131 360.583C224.189 360.431 224.08 360.278 223.804 360.125C223.57 359.977 223.294 359.912 223.018 359.94C222.706 359.989 222.404 360.088 222.123 360.234C221.707 360.434 221.306 360.664 220.923 360.922V360.933Z" fill="white"/>
<path d="M396.277 178.725L378.545 168.489V117.301L396.277 127.536V178.725Z" fill="#37474F"/>
<path d="M396.278 178.725L414.01 168.489V117.301L396.278 127.536V178.725Z" fill="#455A64"/>
<path d="M378.545 117.299L396.277 127.534L414.009 117.299L396.277 107.063L378.545 117.299Z" fill="#455A64"/>
<path d="M356.383 155.69L338.651 145.455V43.0889L356.383 53.3244V155.69Z" fill="#37474F"/>
<path d="M356.385 155.69L374.117 145.455V43.0889L356.385 53.3244V155.69Z" fill="#455A64"/>
<path d="M338.651 43.0871L356.383 53.3226L374.116 43.0871L356.383 32.8516L338.651 43.0871Z" fill="#455A64"/>
<path d="M316.487 132.656L298.755 122.42V86.5962L316.487 96.8317V132.656Z" fill="#37474F"/>
<path d="M316.489 132.656L334.221 122.42V86.5962L316.489 96.8317V132.656Z" fill="#455A64"/>
<path d="M298.755 86.5939L316.487 96.8294L334.219 86.5939L316.487 76.3584L298.755 86.5939Z" fill="#455A64"/>
<path d="M436.173 201.76L418.44 191.513V94.2759L436.162 104.511L436.173 201.76Z" fill="#37474F"/>
<path d="M436.162 201.76L453.894 191.513V94.2759L436.162 104.511V201.76Z" fill="#455A64"/>
<path d="M418.44 94.2728L436.162 104.508L453.894 94.2728L436.173 84.0264L418.44 94.2728Z" fill="#455A64"/>
<g opacity="0.3">
<path opacity="0.3" d="M312.198 194.337L312.013 80.9824C311.975 80.3262 311.783 79.6882 311.453 79.1197C311.123 78.5511 310.665 78.0678 310.114 77.7087L176.376 0.833294C175.285 0.233131 174.488 0.724174 174.488 1.9245L174.707 115.235C174.742 115.892 174.933 116.531 175.263 117.1C175.593 117.669 176.053 118.152 176.605 118.509L310.354 195.439C311.369 196.039 312.198 195.548 312.198 194.337Z" fill="white"/>
</g>
<path d="M311.169 196.233C310.783 196.218 310.408 196.105 310.077 195.905L176.328 118.975C175.69 118.573 175.158 118.023 174.778 117.371C174.398 116.72 174.181 115.986 174.146 115.232L173.939 1.92156C173.893 1.58925 173.947 1.25087 174.094 0.949438C174.241 0.648003 174.475 0.397128 174.765 0.228697C175.055 0.0602658 175.389 -0.0181156 175.723 0.00352406C176.058 0.0251638 176.379 0.145842 176.645 0.35022L310.394 77.2148C311.031 77.618 311.562 78.1685 311.942 78.8199C312.322 79.4713 312.539 80.2045 312.576 80.9576L312.762 194.312C312.788 194.643 312.726 194.975 312.582 195.274C312.439 195.573 312.218 195.828 311.943 196.014C311.709 196.155 311.442 196.23 311.169 196.233ZM175.532 1.07042C175.46 1.05145 175.385 1.05145 175.314 1.07042C175.207 1.16217 175.125 1.27917 175.076 1.41071C175.026 1.54226 175.01 1.68414 175.03 1.82335L175.215 115.178C175.246 115.751 175.414 116.309 175.704 116.804C175.995 117.3 176.4 117.719 176.885 118.026L310.634 194.956C310.961 195.141 311.245 195.196 311.42 195.087C311.594 194.978 311.703 194.716 311.703 194.334L311.518 80.9794C311.483 80.4207 311.319 79.8776 311.038 79.3929C310.758 78.9083 310.37 78.4951 309.903 78.1859L176.099 1.25592C175.929 1.14686 175.734 1.08301 175.532 1.07042Z" fill="#E1A945"/>
<path d="M299.494 169.324C295.948 166.803 293.874 164.523 292.467 146.998L292.347 145.503C291.026 129.037 290.164 118.168 282.657 113.683C279.056 111.501 276.175 113.683 273.13 116.051C270.37 118.157 267.533 120.318 264.335 118.496C258.716 115.222 257.788 108.74 256.042 96.9116C255.824 95.4494 255.606 93.9108 255.355 92.2958C254.973 89.7751 254.645 87.429 254.34 85.2247C252.616 72.8068 251.568 65.2993 245.217 61.4692C244.592 61.026 243.872 60.735 243.114 60.6194C242.356 60.5039 241.582 60.5669 240.853 60.8036C236.04 62.484 232.276 72.665 228.293 83.457C227.987 84.2536 227.693 85.0938 227.376 85.934C224.484 93.8889 221.211 102.913 216.682 104.583C216.042 104.817 215.357 104.904 214.679 104.836C214 104.767 213.346 104.547 212.765 104.19C208.258 101.636 207.451 94.6528 206.676 87.8873C205.901 81.1218 205.148 74.3236 200.893 71.7593C200.532 71.5259 200.119 71.385 199.691 71.3488C199.263 71.3127 198.832 71.3824 198.437 71.5519C193.156 73.6034 188.475 89.2295 188.431 89.3822L187.34 89.0767C187.536 88.4111 192.218 72.785 197.99 70.5262C198.541 70.2979 199.139 70.2055 199.734 70.2568C200.328 70.308 200.902 70.5015 201.405 70.8208C206.109 73.6361 206.927 80.8054 207.724 87.7345C208.52 94.6637 209.24 100.938 213.278 103.219C213.718 103.498 214.217 103.672 214.736 103.727C215.254 103.782 215.779 103.716 216.268 103.535C220.316 102.04 223.644 92.8959 226.318 85.5412C226.634 84.6901 226.929 83.8608 227.234 83.0533C231.49 71.541 235.167 61.6002 240.46 59.7451C241.337 59.4607 242.268 59.3827 243.18 59.5171C244.092 59.6515 244.961 59.9946 245.719 60.5199C252.507 64.6228 253.587 72.3158 255.355 85.0611C255.66 87.2435 255.988 89.6005 256.37 92.1103C256.62 93.7361 256.839 95.2748 257.057 96.7261C258.727 108.227 259.654 114.556 264.815 117.524C267.38 118.998 269.704 117.219 272.399 115.167C275.455 112.832 278.947 110.202 283.148 112.723C291.124 117.503 292.019 128.6 293.361 145.394L293.481 146.889C294.922 164.763 297.082 166.29 300.029 168.418L299.494 169.324Z" fill="#E1A945"/>
<g opacity="0.4">
<path opacity="0.4" d="M299.494 169.324C295.948 166.803 293.874 164.523 292.467 146.998L292.347 145.503C291.026 129.037 290.164 118.168 282.657 113.683C279.056 111.501 276.175 113.683 273.13 116.051C270.37 118.157 267.533 120.318 264.335 118.496C258.716 115.222 257.788 108.74 256.042 96.9116C255.824 95.4494 255.606 93.9108 255.355 92.2958C254.973 89.7751 254.645 87.429 254.34 85.2247C252.616 72.8068 251.568 65.2993 245.217 61.4692C244.592 61.026 243.872 60.735 243.114 60.6194C242.356 60.5039 241.582 60.5669 240.853 60.8036C236.04 62.484 232.276 72.665 228.293 83.457C227.987 84.2536 227.693 85.0938 227.376 85.934C224.484 93.8889 221.211 102.913 216.682 104.583C216.042 104.817 215.357 104.904 214.679 104.836C214 104.767 213.346 104.547 212.765 104.19C208.258 101.636 207.451 94.6528 206.676 87.8873C205.901 81.1218 205.148 74.3236 200.893 71.7593C200.532 71.5259 200.119 71.385 199.691 71.3488C199.263 71.3127 198.832 71.3824 198.437 71.5519C193.156 73.6034 188.475 89.2295 188.431 89.3822L187.34 89.0767C187.536 88.4111 192.218 72.785 197.99 70.5262C198.541 70.2979 199.139 70.2055 199.734 70.2568C200.328 70.308 200.902 70.5015 201.405 70.8208C206.109 73.6361 206.927 80.8054 207.724 87.7345C208.52 94.6637 209.24 100.938 213.278 103.219C213.718 103.498 214.217 103.672 214.736 103.727C215.254 103.782 215.779 103.716 216.268 103.535C220.316 102.04 223.644 92.8959 226.318 85.5412C226.634 84.6901 226.929 83.8608 227.234 83.0533C231.49 71.541 235.167 61.6002 240.46 59.7451C241.337 59.4607 242.268 59.3827 243.18 59.5171C244.092 59.6515 244.961 59.9946 245.719 60.5199C252.507 64.6228 253.587 72.3158 255.355 85.0611C255.66 87.2435 255.988 89.6005 256.37 92.1103C256.62 93.7361 256.839 95.2748 257.057 96.7261C258.727 108.227 259.654 114.556 264.815 117.524C267.38 118.998 269.704 117.219 272.399 115.167C275.455 112.832 278.947 110.202 283.148 112.723C291.124 117.503 292.019 128.6 293.361 145.394L293.481 146.889C294.922 164.763 297.082 166.29 300.029 168.418L299.494 169.324Z" fill="black"/>
</g>
<path d="M281.043 108.86C281.854 109.391 282.53 110.105 283.017 110.945C283.504 111.784 283.788 112.725 283.847 113.694C283.847 115.472 282.592 116.192 281.053 115.309C280.238 114.781 279.559 114.068 279.072 113.228C278.585 112.388 278.303 111.444 278.249 110.475C278.249 108.74 279.46 108.019 281.043 108.86Z" fill="#E1A945"/>
<g opacity="0.2">
<path opacity="0.2" d="M281.043 108.86C281.854 109.391 282.53 110.105 283.017 110.945C283.504 111.784 283.788 112.725 283.847 113.694C283.847 115.472 282.592 116.192 281.053 115.309C280.238 114.781 279.559 114.068 279.072 113.228C278.585 112.388 278.303 111.444 278.249 110.475C278.249 108.74 279.46 108.019 281.043 108.86Z" fill="black"/>
</g>
<path d="M245.503 57.7815C246.316 58.3113 246.992 59.025 247.478 59.8648C247.963 60.7047 248.244 61.647 248.297 62.6155C248.297 64.3942 247.053 65.1144 245.514 64.2305C244.699 63.7032 244.019 62.9903 243.532 62.1502C243.044 61.31 242.763 60.3664 242.71 59.3965C242.71 57.5742 243.954 56.8976 245.503 57.7815Z" fill="#E1A945"/>
<g opacity="0.5">
<path opacity="0.5" d="M245.503 57.7815C246.316 58.3113 246.992 59.025 247.478 59.8648C247.963 60.7047 248.244 61.647 248.297 62.6155C248.297 64.3942 247.053 65.1144 245.514 64.2305C244.699 63.7032 244.019 62.9903 243.532 62.1502C243.044 61.31 242.763 60.3664 242.71 59.3965C242.71 57.5742 243.954 56.8976 245.503 57.7815Z" fill="white"/>
</g>
<path d="M201.187 68.0923C202.002 68.6172 202.682 69.3281 203.169 70.1665C203.657 71.0049 203.939 71.947 203.991 72.9154C203.991 74.705 202.747 75.4252 201.198 74.5413C200.386 74.0109 199.71 73.297 199.225 72.4573C198.74 71.6176 198.459 70.6756 198.404 69.7073C198.393 67.9286 199.648 67.1975 201.187 68.0923Z" fill="#E1A945"/>
<path opacity="0.65" d="M241.127 189.334V75.9796C241.09 75.3242 240.901 74.6865 240.573 74.1179C240.245 73.5493 239.788 73.0657 239.239 72.706L123.342 5.79326C122.251 5.19309 121.454 5.68413 121.454 6.88446V120.239C121.49 120.894 121.679 121.533 122.007 122.101C122.335 122.67 122.792 123.153 123.342 123.513L239.239 190.425C240.286 191.036 241.127 190.545 241.127 189.334Z" fill="white"/>
<path d="M240.09 191.234C239.704 191.219 239.328 191.107 238.998 190.907L123.069 123.994C122.432 123.588 121.901 123.035 121.522 122.382C121.142 121.729 120.924 120.995 120.886 120.24V6.88597C120.843 6.55455 120.899 6.21778 121.047 5.9182C121.195 5.61862 121.429 5.36964 121.719 5.20269C122.008 5.03575 122.341 4.95832 122.674 4.98019C123.008 5.00205 123.327 5.12223 123.592 5.32554L239.489 72.2383C240.126 72.6422 240.656 73.1929 241.036 73.8441C241.416 74.4954 241.634 75.2282 241.672 75.9811V189.336C241.698 189.666 241.636 189.998 241.492 190.297C241.349 190.596 241.128 190.852 240.853 191.038C240.62 191.169 240.357 191.237 240.09 191.234ZM122.501 6.08938C122.43 6.0709 122.355 6.0709 122.283 6.08938C122.176 6.18113 122.095 6.29813 122.045 6.42968C121.996 6.56122 121.98 6.7031 121.999 6.84232V120.24C122.033 120.801 122.197 121.346 122.477 121.832C122.757 122.319 123.147 122.734 123.614 123.045L239.511 189.958C239.622 190.045 239.753 190.102 239.893 190.125C240.032 190.148 240.175 190.135 240.308 190.089C240.482 189.99 240.581 189.717 240.581 189.336V75.9811C240.547 75.4219 240.384 74.8783 240.103 74.3933C239.823 73.9084 239.433 73.4956 238.966 73.1876L123.069 6.2858C122.902 6.16855 122.705 6.1005 122.501 6.08938Z" fill="#E1A945"/>
<path d="M221.189 163.571V88.9762C221.17 88.648 221.074 88.3288 220.909 88.0445C220.744 87.7601 220.515 87.5186 220.239 87.3393L208.836 80.7921C208.312 80.4866 207.887 80.7266 207.887 81.3377V155.889C207.903 156.218 207.997 156.538 208.163 156.823C208.328 157.107 208.559 157.348 208.836 157.526L220.239 164.073C220.763 164.422 221.189 164.171 221.189 163.571Z" fill="#E1A945"/>
<g opacity="0.3">
<path opacity="0.3" d="M221.189 163.571V88.9762C221.17 88.648 221.074 88.3288 220.909 88.0445C220.744 87.7601 220.515 87.5186 220.239 87.3393L208.836 80.7921C208.312 80.4866 207.887 80.7266 207.887 81.3377V155.889C207.903 156.218 207.997 156.538 208.163 156.823C208.328 157.107 208.559 157.348 208.836 157.526L220.239 164.073C220.763 164.422 221.189 164.171 221.189 163.571Z" fill="black"/>
</g>
<path d="M199.025 150.776V112.016C199.007 111.688 198.911 111.369 198.746 111.085C198.581 110.8 198.352 110.559 198.076 110.379L186.662 103.832C186.149 103.538 185.724 103.832 185.724 104.378V143.148C185.743 143.475 185.838 143.793 186 144.077C186.163 144.361 186.39 144.604 186.662 144.785L198.076 151.332C198.6 151.627 199.025 151.42 199.025 150.776Z" fill="#E1A945"/>
<g opacity="0.2">
<path opacity="0.2" d="M199.025 150.776V112.016C199.007 111.688 198.911 111.369 198.746 111.085C198.581 110.8 198.352 110.559 198.076 110.379L186.662 103.832C186.149 103.538 185.724 103.832 185.724 104.378V143.148C185.743 143.475 185.838 143.793 186 144.077C186.163 144.361 186.39 144.604 186.662 144.785L198.076 151.332C198.6 151.627 199.025 151.42 199.025 150.776Z" fill="white"/>
</g>
<path d="M176.887 137.988V78.7462C176.868 78.418 176.772 78.0988 176.607 77.8145C176.442 77.5301 176.213 77.2886 175.937 77.1094L164.523 70.5621C164.011 70.2566 163.585 70.4967 163.585 71.1077V130.338C163.602 130.666 163.697 130.984 163.86 131.268C164.022 131.553 164.25 131.795 164.523 131.975L175.937 138.522C176.439 138.828 176.887 138.588 176.887 137.988Z" fill="#E1A945"/>
<g opacity="0.2">
<path opacity="0.2" d="M176.887 137.988V78.7462C176.868 78.418 176.772 78.0988 176.607 77.8145C176.442 77.5301 176.213 77.2886 175.937 77.1094L164.523 70.5621C164.011 70.2566 163.585 70.4967 163.585 71.1077V130.338C163.602 130.666 163.697 130.984 163.86 131.268C164.022 131.553 164.25 131.795 164.523 131.975L175.937 138.522C176.439 138.828 176.887 138.588 176.887 137.988Z" fill="black"/>
</g>
<path d="M154.692 125.228V40.3545C154.676 40.0271 154.582 39.7082 154.419 39.4238C154.256 39.1394 154.028 38.8975 153.754 38.7177L142.34 32.1705C141.827 31.8649 141.401 32.1705 141.401 32.7161V117.546C141.421 117.873 141.515 118.191 141.678 118.475C141.841 118.759 142.067 119.002 142.34 119.183L153.754 125.73C154.278 126.036 154.692 125.785 154.692 125.228Z" fill="#E1A945"/>
<path d="M390.357 138.793C390.204 137.975 386.2 128.656 384.552 124.99L376.204 128.896L379.401 136.218L388.044 142.907C388.885 142.651 389.594 142.081 390.025 141.314C390.456 140.548 390.575 139.645 390.357 138.793Z" fill="#FFA8A7"/>
<path d="M373.73 236.399H367.292V245.784H373.73V236.399Z" fill="#FFA8A7"/>
<path d="M351.049 224.808L344.614 225.03L344.937 234.409L351.371 234.187L351.049 224.808Z" fill="#FFA8A7"/>
<path d="M352.658 102.005C350.328 102.059 348.05 102.702 346.035 103.873C344.021 105.045 342.335 106.707 341.135 108.705C337.578 113.997 331.314 123.043 331.314 123.043L343.045 126.764L352.658 102.005Z" fill="#E1A945"/>
<g opacity="0.7">
<path opacity="0.7" d="M352.658 102.005C350.328 102.059 348.05 102.702 346.035 103.873C344.021 105.045 342.335 106.707 341.135 108.705C337.578 113.997 331.314 123.043 331.314 123.043L343.045 126.764L352.658 102.005Z" fill="white"/>
</g>
<path d="M373.304 144.869C373.304 151.023 374.1 190.819 374.1 190.819C374.253 192.587 375.912 195.85 375.551 202.648C375.06 211.891 374.264 237.567 374.264 237.567C374.264 237.567 371.241 240.567 366.975 237.567C366.975 237.567 361.137 202.703 359.991 193.547C358.976 185.56 357.274 163.867 357.274 163.867L351.305 189.412C351.305 189.412 352.396 195.413 352.582 199.647C352.767 203.881 351.49 228.368 351.49 228.368C350.446 229.02 349.249 229.389 348.018 229.437C346.788 229.484 345.566 229.21 344.474 228.641C344.474 228.641 339.302 192.871 338.636 189.041C337.97 185.211 343.175 144.869 343.175 144.869H373.304Z" fill="#E1A945"/>
<path opacity="0.2" d="M373.304 144.869C373.304 151.023 374.1 190.819 374.1 190.819C374.253 192.587 375.912 195.85 375.551 202.648C375.06 211.891 374.264 237.567 374.264 237.567C374.264 237.567 371.241 240.567 366.975 237.567C366.975 237.567 361.137 202.703 359.991 193.547C358.976 185.56 357.274 163.867 357.274 163.867L351.305 189.412C351.305 189.412 352.396 195.413 352.582 199.647C352.767 203.881 351.49 228.368 351.49 228.368C350.446 229.02 349.249 229.389 348.018 229.437C346.788 229.484 345.566 229.21 344.474 228.641C344.474 228.641 339.302 192.871 338.636 189.041C337.97 185.211 343.175 144.869 343.175 144.869H373.304Z" fill="black"/>
<path d="M363.617 102.202C369.39 103.588 376.712 105.923 379.287 111.248C381.862 116.573 385.834 125.204 385.834 125.204L376.275 130.857L373.307 125.75V144.868C368.789 149.778 353.032 152.07 343.168 144.868V113.398C343.168 108.389 345.961 102.355 353.654 101.907L363.617 102.202Z" fill="#E1A945"/>
<path opacity="0.7" d="M363.617 102.202C369.39 103.588 376.712 105.923 379.287 111.248C381.862 116.573 385.834 125.204 385.834 125.204L376.275 130.857L373.307 125.75V144.868C368.789 149.778 353.032 152.07 343.168 144.868V113.398C343.168 108.389 345.961 102.355 353.654 101.907L363.617 102.202Z" fill="white"/>
<path d="M365.785 76.5166C366.303 76.457 366.828 76.5164 367.32 76.6904C367.811 76.8644 368.257 77.1483 368.622 77.5205C369.844 78.7645 369.593 81.0778 368.622 86.3811L364.847 86.8176L365.785 76.5166Z" fill="#263238"/>
<path d="M343.841 75.0293C343.031 75.0393 342.228 74.8795 341.484 74.5601C340.327 73.8945 340.022 75.2039 340.655 76.3497C341.074 77.1669 341.695 77.8635 342.459 78.3734C343.222 78.8833 344.104 79.1896 345.019 79.2632C345.019 79.0995 346.111 76.3169 346.111 76.3169L343.841 75.0293Z" fill="#263238"/>
<path d="M364.019 86.8152C364.576 87.1534 365.372 86.0732 366.06 85.353C366.331 85.0432 366.677 84.8074 367.065 84.6678C367.452 84.5282 367.869 84.4893 368.276 84.5547C368.683 84.6201 369.066 84.7878 369.391 85.0419C369.715 85.296 369.969 85.6283 370.13 86.0077C371.276 88.4192 368.679 91.6383 367.151 92.6968C366.724 93.0657 366.191 93.2906 365.629 93.3396C365.067 93.3885 364.504 93.2591 364.019 92.9696L363.616 102.201C362.941 103.681 361.911 104.969 360.615 105.952C359.32 106.935 357.802 107.581 356.195 107.832C350.739 108.563 351.885 104.1 353.664 101.907V98.5456C352.309 98.8391 350.917 98.9128 349.539 98.7639C348.83 98.5784 347.149 96.5815 346.058 94.2572C344.836 91.6929 342.784 87.1425 344.618 79.4495C346.56 71.1891 355.431 70.9381 360.735 74.2663C366.038 77.5945 364.019 86.8152 364.019 86.8152Z" fill="#FFA8A7"/>
<path d="M364.016 87.7545C364.288 87.7545 365.369 85.9867 366.056 85.3538C367.027 84.4699 365.783 76.515 365.783 76.515C365.783 76.515 366.755 73.5033 364.845 71.4955C362.935 69.4877 359.247 69.8368 356.541 69.7386C353.22 69.7554 349.93 69.0944 346.873 67.7963C343.032 66.1267 342.748 65.9303 342.268 67.6217C341.788 69.3131 341.613 73.165 343.905 75.7512L345.814 76.4605C345.814 76.4605 346.84 77.3662 350.419 77.8026C353.728 78.054 357.053 77.9919 360.349 77.6171C361.386 77.4753 361.604 78.4792 362.161 81.229C362.663 83.6515 363.066 87.7435 364.016 87.7545Z" fill="#263238"/>
<path d="M365.772 77.1339L369.155 75.3116C369.047 75.0844 368.894 74.8815 368.706 74.7152C368.517 74.5488 368.297 74.4225 368.058 74.3439C367.819 74.2653 367.567 74.2361 367.317 74.258C367.066 74.28 366.823 74.3526 366.601 74.4714C366.147 74.7233 365.807 75.1406 365.653 75.6365C365.498 76.1323 365.541 76.6687 365.772 77.1339Z" fill="#263238"/>
<path d="M353.66 98.5466C355.974 98.1105 358.243 97.4602 360.437 96.6043C361.47 96.0697 362.315 95.232 362.859 94.2036C362.596 95.232 362.128 96.1969 361.484 97.0407C360.196 98.6775 353.66 99.8888 353.66 99.8888V98.5466Z" fill="#F28F8F"/>
<path d="M354.882 85.5594C354.878 85.6939 354.9 85.828 354.949 85.9536C354.997 86.0792 355.071 86.1938 355.164 86.2905C355.258 86.3872 355.37 86.4641 355.494 86.5166C355.618 86.5691 355.751 86.5961 355.886 86.596C356.107 86.6135 356.328 86.5633 356.52 86.452C356.711 86.3407 356.865 86.1737 356.959 85.9732C357.054 85.7727 357.085 85.5481 357.049 85.3294C357.012 85.1107 356.91 84.9083 356.756 84.7491C356.602 84.5898 356.403 84.4813 356.185 84.438C355.968 84.3947 355.742 84.4186 355.539 84.5066C355.336 84.5946 355.164 84.7425 355.046 84.9305C354.929 85.1186 354.872 85.3379 354.882 85.5594Z" fill="#263238"/>
<path d="M355.938 81.765L358.121 82.9544C358.272 82.6588 358.304 82.3165 358.211 81.9979C358.118 81.6792 357.906 81.4085 357.619 81.2412C357.476 81.159 357.317 81.1072 357.153 81.0892C356.988 81.0712 356.822 81.0872 356.664 81.1364C356.507 81.1856 356.361 81.2668 356.236 81.3749C356.111 81.4831 356.01 81.6159 355.938 81.765Z" fill="#263238"/>
<path d="M354.964 92.3799L352.661 93.2419C352.713 93.3951 352.794 93.5364 352.901 93.6578C353.007 93.7793 353.137 93.8784 353.282 93.9494C353.427 94.0205 353.585 94.062 353.746 94.0717C353.907 94.0814 354.069 94.059 354.222 94.0058C354.53 93.8813 354.779 93.6433 354.917 93.3408C355.055 93.0383 355.072 92.6944 354.964 92.3799Z" fill="#F28F8F"/>
<path d="M345.912 82.6034L347.866 81.0866C347.774 80.9545 347.656 80.8424 347.519 80.7572C347.382 80.672 347.23 80.6155 347.071 80.591C346.911 80.5665 346.749 80.5746 346.593 80.6148C346.437 80.6549 346.291 80.7264 346.163 80.8247C345.9 81.0317 345.727 81.3323 345.681 81.6637C345.634 81.995 345.717 82.3317 345.912 82.6034Z" fill="#263238"/>
<path d="M346.512 85.2769C346.512 85.4087 346.538 85.5393 346.588 85.6611C346.639 85.7829 346.713 85.8935 346.806 85.9868C346.899 86.08 347.01 86.1539 347.132 86.2044C347.253 86.2548 347.384 86.2808 347.516 86.2808C347.648 86.2808 347.778 86.2548 347.9 86.2044C348.022 86.1539 348.132 86.08 348.226 85.9868C348.319 85.8935 348.393 85.7829 348.443 85.6611C348.494 85.5393 348.52 85.4087 348.52 85.2769C348.524 85.1423 348.501 85.0082 348.453 84.8826C348.404 84.757 348.331 84.6425 348.237 84.5458C348.144 84.449 348.032 84.3721 347.908 84.3197C347.784 84.2672 347.65 84.2402 347.516 84.2402C347.246 84.246 346.989 84.3581 346.801 84.5522C346.613 84.7463 346.509 85.0067 346.512 85.2769Z" fill="#263238"/>
<path d="M351.63 84.3164L351.303 90.3726L348.149 89.2923L351.63 84.3164Z" fill="#F28F8F"/>
<path d="M325.355 120.761L351.086 127.538L358.681 159.477L334.216 152.373L325.355 120.761Z" fill="#E1A945"/>
<path d="M336.572 141.901C336.119 142.71 335.434 143.363 334.605 143.778C333.776 144.192 332.842 144.348 331.924 144.226L331.553 142.905L336.572 141.901Z" fill="#E1A945"/>
<path d="M342.324 142.904C342.433 143.755 344.19 145.327 347.147 146.309C350.508 147.4 355.67 146.844 355.67 146.844L355.211 145.25L342.324 142.904Z" fill="#E1A945"/>
<path opacity="0.43" d="M332.93 125.391L332.712 124.409C332.603 123.863 334.108 123.841 336.094 124.354L339.881 125.336C341.867 125.86 343.558 126.711 343.678 127.257L343.896 128.239L332.93 125.391Z" fill="#455A64"/>
<path d="M331.098 121.693C331.032 121.355 331.643 121.268 332.472 121.497L334.022 121.955C334.022 121.955 333.575 119.773 336.914 120.569C337.805 120.701 338.647 121.06 339.358 121.613C340.069 122.165 340.625 122.892 340.973 123.723L342.577 124.181C343.461 124.432 344.258 124.902 344.367 125.273L344.552 125.884L331.294 122.392L331.098 121.693Z" fill="#37474F"/>
<path d="M332.929 122.75C334.141 123.045 334.642 123.209 334.828 124.038C335.013 124.867 335.123 125.697 335.123 125.697L340.982 127.246C340.982 127.246 340.699 126.035 340.611 125.566C340.524 125.097 340.72 124.813 341.703 125.053L341.779 124.682L332.58 122.347L332.929 122.75Z" fill="#37474F"/>
<path d="M332.723 125.486L332.515 124.504C332.395 123.958 333.901 123.936 335.887 124.449L339.674 125.431C341.66 125.944 343.362 126.795 343.482 127.341L343.689 128.323L332.723 125.486Z" fill="#37474F"/>
<path d="M388.044 142.905L379.402 136.216C379.402 136.216 361.288 139.62 359.247 139.784C357.207 139.948 355.592 137.929 354.817 135.921C354.042 133.913 352.471 134.164 352.471 134.164C352.471 134.164 353.071 136.718 353.267 137.525C353.464 138.333 348.739 138.998 346.022 138.082C343.305 137.165 339.365 138.496 341.799 142.207C344.232 145.917 348.99 146.331 352.285 146.342C353.664 146.329 355.042 146.234 356.41 146.058C357.501 145.928 358.592 145.818 359.607 145.742C366.351 145.262 384.978 143.865 388.044 142.905Z" fill="#FFA8A7"/>
<path d="M327.962 130.103L329.108 134.173C329.326 134.959 332.316 136.356 334.215 136.901C336.114 137.447 338.176 137.992 337.281 140.688C336.452 143.121 333.342 143.678 331.76 143.612C330.694 143.432 329.699 142.961 328.884 142.25C328.069 141.539 327.467 140.617 327.144 139.586C326.053 136.476 326.642 133.147 326.206 131.325C325.769 129.503 327.024 129.023 327.962 130.103Z" fill="#F28F8F"/>
<path d="M367.291 242.61V241.682C366.68 241.955 365.24 247.422 362.686 249.746C360.657 251.601 357.885 253.751 357.23 255.813C356.576 257.876 361.093 259.152 362.992 258.814C365.174 258.421 369.026 256.872 369.987 255.431C370.947 253.991 371.394 251.863 372.169 250.805C372.944 249.746 374.744 248.622 375.17 247.357C375.296 246.215 375.17 245.06 374.799 243.974C374.504 242.828 374.177 241.584 373.795 241.682C373.795 241.824 373.795 242.391 373.795 242.391C372.859 243.116 371.705 243.501 370.521 243.483C369.572 243.515 367.28 243.33 367.291 242.61Z" fill="#37474F"/>
<path d="M344.932 232.403C344.594 232.403 344.321 232.883 343.59 233.68C342.486 234.795 341.202 235.717 339.792 236.408C337.381 237.619 332.7 239.474 330.572 240.434C329.24 241.034 329.306 242.617 330.681 243.544C332.056 244.472 335.362 245.115 339.334 244.221C341.516 243.741 344.321 241.744 346.1 241.842C347.878 241.94 351.217 241.929 352.538 241.023C353.858 240.118 353.323 238.175 352.952 236.506C352.581 234.836 351.97 231.912 351.37 232.032V232.61C350.595 233.778 346.645 234.258 344.943 233.396L344.932 232.403Z" fill="#37474F"/>
<path d="M65.9256 228.49L69.9522 234.088C68.1165 234.936 66.1141 235.361 64.0924 235.332C60.4914 235.474 59.4984 234.241 59.3675 234.001C58.7564 232.702 59.7057 230.345 59.9676 228.315L65.9256 228.49Z" fill="#37474F"/>
<path d="M59.3662 222.856C59.3662 222.856 59.9773 227.941 60.0209 229.032C60.0646 230.123 64.9859 230.483 65.9244 228.486L66.0662 222.267L59.3662 222.856Z" fill="#F28F8F"/>
<path d="M59.3646 122.674C56.0037 127.912 52.8174 132.495 52.119 138.409C50.6786 150.838 55.3926 165.045 56.4075 174.233C54.4994 176.855 53.396 179.976 53.2321 183.214C53.2321 187.011 59.3646 222.857 59.3646 222.857C59.3646 222.857 63.8168 224.221 66.0646 222.268L70.2767 156.327L68.0943 148.295L59.3646 122.674Z" fill="#E1A945"/>
<path opacity="0.5" d="M59.3646 122.674C56.0037 127.912 52.8174 132.495 52.119 138.409C50.6786 150.838 55.3926 165.045 56.4075 174.233C54.4994 176.855 53.396 179.976 53.2321 183.214C53.2321 187.011 59.3646 222.857 59.3646 222.857C59.3646 222.857 63.8168 224.221 66.0646 222.268L70.2767 156.327L68.0943 148.295L59.3646 122.674Z" fill="white"/>
<path d="M90.4318 98.1113L112.594 108.751L99.2924 138.661L78.625 126.734L90.4318 98.1113Z" fill="#E1A945"/>
<path d="M109.988 109.298L98.5084 134.789L82.5986 125.622L91.6229 100.536L109.988 109.298Z" fill="#E1A945"/>
<path d="M91.6199 100.536L109.985 109.298L97.5888 135.061L80.2168 125.142L91.6199 100.536Z" fill="white"/>
<path d="M95.6152 104.223L96.0408 103.306C96.2809 102.804 97.7976 103.012 99.4345 103.786L102.566 105.27C104.203 106.034 105.327 107.082 105.098 107.584L104.661 108.5L95.6152 104.223Z" fill="#E0E0E0"/>
<path d="M51.8486 108.859C50.2336 113.464 47.0364 120.775 48.0621 122.248C49.0878 123.722 55.2422 123.405 58.6686 123.274C63.0335 123.111 66.6563 122.936 66.6563 122.936L65.9251 115.297H59.7271L62.4551 107.572L51.8486 108.859Z" fill="#F28F8F"/>
<path d="M58.0583 92.4912C55.7995 96.2013 51.2383 109.296 51.2383 109.296C52.5056 110.733 54.1865 111.743 56.0505 112.187C57.6784 112.687 59.4081 112.755 61.07 112.384L66.1114 99.835L58.0583 92.4912Z" fill="#E1A945"/>
<path opacity="0.4" d="M58.0583 92.4912C55.7995 96.2013 51.2383 109.296 51.2383 109.296C52.5056 110.733 54.1865 111.743 56.0505 112.187C57.6784 112.687 59.4081 112.755 61.07 112.384L66.1114 99.835L58.0583 92.4912Z" fill="black"/>
<path d="M80.6115 94.8271C84.5726 96.0166 86.9842 96.2239 91.3599 102.957C95.7356 109.689 105.316 123.046 106.266 124.65C107.586 126.832 108.154 129.538 107.019 131.59C105.884 133.641 102.861 132.681 98.5182 128.851C94.1752 125.021 85.9912 114.753 85.9912 114.753C85.9912 114.753 77.4579 105.139 80.6115 94.8271Z" fill="#FFA8A7"/>
<path d="M77.4443 86.0959L76.3749 95.5566L67.0342 96.6369L68.3873 84.0771L77.4443 86.0959Z" fill="#FFA8A7"/>
<path d="M57.4688 72.2726C58.2435 63.5429 62.9248 59.931 66.6458 59.069C74.0333 57.323 80.6241 60.0074 83.614 65.1906C84.3997 66.5546 85.7201 71.6615 83.0903 74.6732C80.4605 77.6849 57.4688 72.2726 57.4688 72.2726Z" fill="#263238"/>
<path d="M84.346 75.3506C84.346 75.3506 86.2884 78.6242 85.9938 78.9952C85.4774 79.2952 84.9122 79.502 84.3242 79.6063L84.346 75.3506Z" fill="#F28F8F"/>
<path d="M78.4529 64.8204C80.4607 66.0098 83.9089 68.1813 84.3782 75.8197C84.8692 83.6655 83.3742 86.077 82.1957 87.0373C81.4428 87.692 77.5799 87.4738 75.6485 86.7645C73.2806 85.8697 68.0101 83.4363 65.7404 79.2679C63.1215 74.3684 62.8923 68.0285 66.3623 65.7479C68.1315 64.5756 70.171 63.8751 72.2871 63.7127C74.4032 63.5504 76.5256 63.9317 78.4529 64.8204Z" fill="#FFA8A7"/>
<path d="M79.0388 65.2106C79.0388 65.2106 80.4246 72.4235 78.0239 76.7883C78.0239 76.7883 76.9327 73.9403 74.4884 74.6059C72.0441 75.2715 72.0769 78.4797 73.8774 80.2256C74.3335 80.7224 74.9207 81.0802 75.5713 81.2579C76.2219 81.4355 76.9095 81.4256 77.5547 81.2295C77.2154 83.4761 76.1679 85.5557 74.5648 87.1657C72.02 87.7544 69.3606 87.612 66.8932 86.7548C64.4258 85.8976 62.2509 84.3605 60.6192 82.3207C55.1632 75.839 56.5927 64.8614 65.2459 62.5044C73.8992 60.1474 79.0388 65.2106 79.0388 65.2106Z" fill="#263238"/>
<path d="M69.7209 231.4C69.7209 231.4 74.6095 231.084 77.9813 230.658C81.3531 230.233 84.0266 231.88 83.23 233.277C82.4334 234.674 80.5784 235.82 77.6867 236.791C75.2096 237.631 72.2306 238.231 69.6554 238.973C67.0801 239.715 65.2906 240.675 63.7956 240.163C62.1261 239.584 61.4059 238.919 61.5477 237.696C61.9121 235.958 62.3637 234.239 62.9008 232.546L69.7209 231.4Z" fill="#37474F"/>
<path d="M64.3203 225.989L62.5634 233.704C62.5634 233.704 62.3997 234.643 66.4154 235.243C70.431 235.843 76.7382 233.148 77.8185 232.591C78.8988 232.035 79.0188 230.954 75.0686 231.172C71.1185 231.391 69.7217 231.402 69.7217 231.402L71.0421 227.975L64.3203 225.989Z" fill="#FFA8A7"/>
<path d="M70.2784 156.325L68.096 148.294C63.9174 147.194 59.8871 145.593 56.0928 143.525C56.0928 143.525 58.3625 147.661 64.8224 149.92L68.2161 160.243L68.5107 183.856L70.2784 156.325Z" fill="#E1A945"/>
<path d="M59.3639 122.674C57.5634 125.609 53.264 130.64 54.1697 135.463C55.2609 141.323 58.4363 145.425 68.0608 148.295L77.096 181.032C77.096 181.032 72.3929 185.396 70.9525 189.619C69.5121 193.842 64.3179 226.022 64.3179 226.022C64.3179 226.022 65.922 228.641 70.9961 228.008C70.9961 228.008 88.6846 187.633 89.9395 185.003C91.4366 182.356 91.9652 179.269 91.4344 176.274C90.8779 172.029 84.8872 125.686 84.8872 125.686L59.3639 122.674Z" fill="#E1A945"/>
<path opacity="0.5" d="M59.3639 122.674C57.5634 125.609 53.264 130.64 54.1697 135.463C55.2609 141.323 58.4363 145.425 68.0608 148.295L77.096 181.032C77.096 181.032 72.3929 185.396 70.9525 189.619C69.5121 193.842 64.3179 226.022 64.3179 226.022C64.3179 226.022 65.922 228.641 70.9961 228.008C70.9961 228.008 88.6846 187.633 89.9395 185.003C91.4366 182.356 91.9652 179.269 91.4344 176.274C90.8779 172.029 84.8872 125.686 84.8872 125.686L59.3639 122.674Z" fill="white"/>
<path d="M57.7282 93.1681C58.4266 91.313 60.6526 89.7635 62.6604 90.3091C68.9567 92.0223 78.7448 94.2811 80.6108 94.8267C80.6108 94.8267 79.7815 109.012 87.0271 113.246C86.6888 115.942 84.8447 125.61 84.8447 125.61C84.8447 125.61 76.115 129.844 68.9567 127.792C61.7984 125.741 59.365 122.707 59.365 122.707L62.9551 116.858C62.1912 114.949 59.2231 108.5 57.3135 102.498C56.6113 99.4072 56.7545 96.1843 57.7282 93.1681Z" fill="#E1A945"/>
<path opacity="0.2" d="M57.7282 93.1681C58.4266 91.313 60.6526 89.7635 62.6604 90.3091C68.9567 92.0223 78.7448 94.2811 80.6108 94.8267C80.6108 94.8267 79.7815 109.012 87.0271 113.246C86.6888 115.942 84.8447 125.61 84.8447 125.61C84.8447 125.61 76.115 129.844 68.9567 127.792C61.7984 125.741 59.365 122.707 59.365 122.707L62.9551 116.858C62.1912 114.949 59.2231 108.5 57.3135 102.498C56.6113 99.4072 56.7545 96.1843 57.7282 93.1681Z" fill="black"/>
<path opacity="0.25" d="M61.9736 114.524C64.9577 116.319 68.0857 117.863 71.3253 119.14C68.3855 119.083 65.5073 118.288 62.9557 116.827L61.9736 114.524Z" fill="#E1A945"/>
<path d="M63.8301 61.0111C63.8301 61.0111 60.8402 55.9152 53.5182 57.2356C46.1962 58.5559 43.2281 66.3253 43.3372 71.2466C43.4464 76.168 45.0941 79.6053 40.6856 85.4323C39.8167 86.5814 39.2044 87.9036 38.8901 89.3095C38.5758 90.7155 38.5667 92.1725 38.8636 93.5823C39.1604 94.992 39.7562 96.3217 40.6108 97.4815C41.4654 98.6413 42.5589 99.6043 43.8174 100.305C49.699 103.579 51.1284 97.883 49.7644 93.0162C48.1931 87.4401 54.031 86.469 55.5915 82.246C57.1519 78.023 54.0856 69.1515 56.0498 66.1398C58.2322 62.8662 61.1785 63.3245 62.597 64.4375L63.8301 61.0111Z" fill="#263238"/>
<path d="M80.6134 94.8271C82.5704 95.243 84.4818 95.8497 86.3204 96.6386C88.7211 97.8171 98.0836 112.516 98.0836 112.516C98.0836 112.516 97.418 118.048 89.7577 120.241L85.2292 114.523C85.2292 114.523 78.5728 104.583 80.6134 94.8271Z" fill="#E1A945"/>
<path opacity="0.1" d="M80.6134 94.8271C82.5704 95.243 84.4818 95.8497 86.3204 96.6386C88.7211 97.8171 98.0836 112.516 98.0836 112.516C98.0836 112.516 97.418 118.048 89.7577 120.241L85.2292 114.523C85.2292 114.523 78.5728 104.583 80.6134 94.8271Z" fill="black"/>
<path d="M86.5558 116.246C84.5437 113.904 83.0257 111.18 82.0928 108.237C82.0928 108.237 82.0928 114.588 86.2721 117.872L86.5558 116.246Z" fill="#E1A945"/>
<path opacity="0.4" d="M86.5558 116.246C84.5437 113.904 83.0257 111.18 82.0928 108.237C82.0928 108.237 82.0928 114.588 86.2721 117.872L86.5558 116.246Z" fill="black"/>
<path d="M96.4087 100.27C96.5506 99.9537 97.2162 99.9755 97.8928 100.27L99.1149 100.87C99.1149 100.87 100.064 98.8952 102.901 100.085C105.739 101.274 104.866 103.555 104.866 103.555L106.164 104.22C106.884 104.58 107.364 105.137 107.255 105.464L107.037 106.043L96.125 100.805L96.4087 100.27Z" fill="#455A64"/>
<path d="M97.5238 101.516C98.5495 101.975 98.9424 102.193 98.615 102.979C98.2877 103.764 97.8184 104.517 97.8184 104.517L102.642 106.831C102.642 106.831 103.154 105.739 103.373 105.259C103.591 104.779 103.984 104.594 104.748 104.965L105.075 104.637L97.4365 101.091L97.5238 101.516Z" fill="#455A64"/>
<path d="M95.5264 103.949L95.9628 103.033C96.2029 102.52 97.7197 102.738 99.3565 103.513L102.488 104.997C104.114 105.761 105.249 106.797 105.009 107.31L104.572 108.227L95.5264 103.949Z" fill="#455A64"/>
</svg>
